<svg width="480.000000" height="256.500000" viewBox="0 0 480 256.5" fill="none" xmlns="http://www.w3.org/2000/svg" xmlns:xlink="http://www.w3.org/1999/xlink">
	<desc>
			Created with Pixso.
	</desc>
	<defs>
		<filter id="filter_5_2_dd" x="0.000000" y="0.000000" width="480.000000" height="256.500000" filterUnits="userSpaceOnUse" color-interpolation-filters="sRGB">
			<feFlood flood-opacity="0" result="BackgroundImageFix"/>
			<feColorMatrix in="SourceAlpha" type="matrix" values="0 0 0 0 0 0 0 0 0 0 0 0 0 0 0 0 0 0 127 0" result="hardAlpha"/>
			<feOffset dx="4" dy="1"/>
			<feGaussianBlur stdDeviation="3.33333"/>
			<feComposite in2="hardAlpha" operator="out" k2="-1" k3="1"/>
			<feColorMatrix type="matrix" values="0 0 0 0 0 0 0 0 0 0 0 0 0 0 0 0 0 0 0.25 0"/>
			<feBlend mode="normal" in2="BackgroundImageFix" result="effect_dropShadow_1"/>
			<feBlend mode="normal" in="SourceGraphic" in2="effect_dropShadow_1" result="shape"/>
		</filter>
	</defs>
	<g filter="url(#filter_5_2_dd)">
		<path id="Rectangle 1" d="M6 9.5L162 9L181 9.5L205.5 9.5L258 9L328 9L335.15 15.83C337.94 18.5 341.65 20 345.51 20L348 20L358.5 20C361.07 20 363.55 19.03 365.44 17.29L374.5 9L406.79 9C409.8 9 412.67 10.22 414.74 12.39L438.75 37.5L462.95 62.81C464.9 64.85 466 67.58 466 70.41L466 206L426.5 213.5L426.5 245.5L6 245.5L6 9.5Z" fill="#BCFC36" fill-opacity="1.000000" fill-rule="evenodd"/>
	</g>
	<path id="Vector 1" d="M423.5 205.5L465.5 205.5L446.5 225L426.94 243.62C426.01 244.5 424.78 245 423.5 245L423.5 205.5Z" fill="#61821B" fill-opacity="1.000000" fill-rule="evenodd"/>
</svg>
