<svg width="72.000000" height="72.000000" viewBox="0 0 72 72" fill="none" xmlns="http://www.w3.org/2000/svg" xmlns:xlink="http://www.w3.org/1999/xlink">
	<desc>
			Created with Pixso.
	</desc>
	<defs>
		<radialGradient gradientTransform="translate(36 36) rotate(90) scale(36 36)" cx="0.000000" cy="0.000000" r="1.000000" id="paint_radial_9_5_0" gradientUnits="userSpaceOnUse">
			<stop stop-color="#B0B0B0"/>
			<stop offset="1.000000" stop-color="#C4C4C4" stop-opacity="0.788235"/>
		</radialGradient>
	</defs>
	<circle id="Oval 1" cx="36.000000" cy="36.000000" r="36.000000" fill="url(#paint_radial_9_5_0)" fill-opacity="1.000000"/>
	<path id="path" d="M36 36C36.92 36 37.82 35.82 38.67 35.46C39.53 35.11 40.29 34.6 40.94 33.94C41.6 33.29 42.11 32.53 42.46 31.67C42.82 30.82 43 29.92 43 29C43 28.07 42.82 27.17 42.46 26.32C42.11 25.46 41.6 24.7 40.94 24.05C40.29 23.39 39.53 22.88 38.67 22.53C37.82 22.17 36.92 22 36 22C35.07 22 34.17 22.17 33.32 22.53C32.46 22.88 31.7 23.39 31.05 24.05C30.39 24.7 29.88 25.46 29.53 26.32C29.17 27.17 29 28.07 29 29C29 29.92 29.17 30.82 29.53 31.67C29.88 32.53 30.39 33.29 31.05 33.94C31.7 34.6 32.46 35.11 33.32 35.46C34.17 35.82 35.07 36 36 36ZM36 24C36.66 24 37.3 24.12 37.91 24.38C38.52 24.63 39.06 24.99 39.53 25.46C40 25.93 40.36 26.47 40.61 27.08C40.87 27.69 41 28.33 41 29C41 29.66 40.87 30.3 40.61 30.91C40.36 31.52 40 32.06 39.53 32.53C39.06 33 38.52 33.36 37.91 33.61C37.3 33.87 36.66 34 36 34C35.33 34 34.69 33.87 34.08 33.61C33.47 33.36 32.93 33 32.46 32.53C31.99 32.06 31.63 31.52 31.38 30.91C31.12 30.3 31 29.66 31 29C31 28.33 31.12 27.69 31.38 27.08C31.63 26.47 31.99 25.93 32.46 25.46C32.93 24.99 33.47 24.63 34.08 24.38C34.69 24.12 35.33 24 36 24Z" fill="#FFFFFF" fill-opacity="1.000000" fill-rule="nonzero"/>
	<path id="path" d="M37 38L35 38C33.54 38 32.13 38.27 30.79 38.83C29.44 39.39 28.25 40.19 27.22 41.22C26.19 42.25 25.39 43.44 24.83 44.79C24.27 46.13 24 47.54 24 49C24 49.66 24.33 50 25 50L47 50C47.66 50 48 49.66 48 49C48 47.54 47.72 46.13 47.16 44.79C46.6 43.44 45.8 42.25 44.77 41.22C43.74 40.19 42.55 39.39 41.2 38.83C39.86 38.27 38.45 38 37 38ZM26.06 48C26.18 46.9 26.49 45.85 27 44.87C27.51 43.89 28.17 43.03 29 42.29C29.82 41.55 30.75 40.98 31.78 40.59C32.82 40.19 33.89 40 35 40L37 40C38.1 40 39.17 40.19 40.21 40.59C41.24 40.98 42.17 41.55 42.99 42.29C43.82 43.03 44.48 43.89 44.99 44.87C45.5 45.85 45.81 46.9 45.93 48L26.06 48Z" fill="#FFFFFF" fill-opacity="1.000000" fill-rule="nonzero"/>
</svg>
